<svg width="191" height="219" viewBox="0 0 191 219" fill="none" xmlns="http://www.w3.org/2000/svg">
<path d="M109.945 49.6178C109.945 39.0686 119.456 30.9166 129.309 34.685C165.127 48.3837 190.562 83.0761 190.562 123.71C190.562 176.332 147.904 218.991 95.2812 218.991C77.9438 218.991 61.6886 214.359 47.6836 206.267C48.3008 205.492 48.9609 204.734 49.668 204C53.6807 199.831 59.7508 196.588 66.7861 194.192L66.7891 194.191C69.9603 193.11 73.5254 192.159 77.417 191.157C78.8312 190.793 80.2896 190.419 81.7705 190.035C85.9467 190.215 91.1413 189.67 96.6289 188.327C100.335 187.42 103.754 186.25 106.699 184.945C135.643 179.582 157.562 154.206 157.562 123.71C157.562 99.1376 143.332 77.8892 122.664 67.7554C115.528 64.2568 109.945 57.5652 109.945 49.6178ZM80.6094 49.6211C80.6094 57.5679 75.0278 64.2592 67.8928 67.7584C47.2273 77.8933 33 99.14 33 123.71C33 129.721 33.852 135.534 35.4414 141.034C25.4623 148.529 16.5167 161.783 13.8486 173.207C5.06146 158.781 0 141.836 0 123.71C3.82034e-05 83.0797 25.431 48.3897 61.2436 34.6884C71.0972 30.9186 80.6094 39.071 80.6094 49.6211Z" fill="#41CDDC"/>
<path d="M122.331 107.782C122.25 110.211 119.365 113.647 118.005 115.46C107.77 129.149 91.1621 133.317 74.6755 134.966C66.2208 135.811 57.5343 135.972 49.6666 139.434C26.809 149.498 17.2581 172.441 18.323 195.629C18.4702 198.905 18.8071 202.172 19.2768 205.413C19.4535 206.607 19.6524 207.801 19.862 208.984C19.7276 208.231 20.242 206.997 20.4107 206.275C20.9744 203.9 21.6846 201.553 22.5199 199.254C25.1267 192.114 28.9788 185.333 34.1878 179.654C40.803 172.443 49.8649 167.955 59.2975 165.25C76.5296 160.298 96.5591 160.156 109.564 146.425C115.026 140.66 118.297 133.384 120.103 125.834C121.524 119.914 122.122 113.834 122.32 107.782L122.331 107.782Z" fill="#0D80D2"/>
<path d="M114.691 150.366C114.659 151.906 112.362 154.18 111.282 155.374C103.154 164.39 89.7105 167.603 76.3308 169.218C69.4694 170.045 62.4098 170.448 56.0623 172.911C37.6213 180.071 30.179 194.918 31.3703 209.553C31.536 211.62 31.8558 213.676 32.2832 215.71C32.4435 216.46 32.622 217.208 32.809 217.949C32.6892 217.478 33.09 216.679 33.217 216.216C33.642 214.694 34.1864 213.184 34.8332 211.701C36.8521 207.093 39.8885 202.669 44.0435 198.896C49.3201 194.104 56.624 190.95 64.2544 188.912C78.1938 185.181 94.475 184.397 104.854 175.259C109.214 171.422 111.771 166.705 113.133 161.865C114.205 158.071 114.606 154.203 114.682 150.367L114.691 150.366Z" fill="#0D80D2"/>
<path d="M72.5931 191.689C87.8839 188.162 100.922 186.765 106.854 184.953C112.489 193.028 102.076 215 90.2106 217.531C75.3792 220.695 48.9529 207.073 46.9766 206.023C50.5361 197.618 67.4492 192.875 72.5931 191.689Z" fill="#41CDDC"/>
<path d="M95.2812 0L96.0601 3.07226C98.6941 13.4623 107.36 21.2211 117.977 22.6953C107.308 24.4175 98.6691 32.2884 95.9638 42.7509L95.2812 45.3906L94.5987 42.7509C91.8934 32.2884 83.2544 24.4175 72.5859 22.6953C83.2028 21.2211 91.8684 13.4623 94.5024 3.07226L95.2812 0Z" fill="#D2BE0D"/>
<path d="M95.2813 51.1067C96.5456 55.4302 99.9265 58.811 104.25 60.0754C99.9265 61.3398 96.5456 64.7207 95.2813 69.0442C94.0169 64.7207 90.636 61.3398 86.3125 60.0754C90.636 58.811 94.0169 55.4302 95.2813 51.1067Z" fill="#D2BE0D"/>
</svg>
